Coordinates
nRows=14
nColumns=24

# SIMM Motion File Header:
name Coordinates
datacolumns 24
datarows 14
otherdata 1
range 0.80832999999999999000 0.82133000000000000000
endheader
time	pelvis_tx	pelvis_ty	pelvis_tz	pelvis_tilt	pelvis_list	pelvis_rotation	hip_flexion_r	hip_adduction_r	hip_rotation_r	knee_angle_r	ankle_angle_r	subtalar_angle_r	mtp_angle_r	hip_flexion_l	hip_adduction_l	hip_rotation_l	knee_angle_l	ankle_angle_l	subtalar_angle_l	mtp_angle_l	lumbar_extension	lumbar_bending	lumbar_rotation
      0.80832999999999999000	      2.11744226113627620000	      0.75234482805454972000	     -0.21510391866534040000	     -5.62689218580866780000	     -2.69047909946816820000	      1.63746158414941380000	     25.96008349763446400000	      0.55631465056141016000	      2.13441880272522070000	    -48.47097787420906200000	     -0.71644269512220382000	     -0.00000000000016133910	      0.00000000000000035024	      4.80333436497536950000	      2.16871299177640210000	     -6.21246195765262050000	     -5.91404861111962530000	      2.64850703383211710000	     -0.00000000000007456005	     -0.00000000000075286602	     -2.12250445695892240000	      3.17090117656533140000	      0.33265448552560767000
      0.80932999999999999000	      2.11857488715521350000	      0.75234319374469660000	     -0.21517321444985907000	     -5.62593786977318010000	     -2.71210012036413370000	      1.65862604098834640000	     26.07352502017401700000	      0.58743452364450088000	      2.24759181778205220000	    -48.19357379399424700000	     -0.63572568380378025000	     -0.00000000000016102915	      0.00000000000000049336	      4.64239345440581010000	      2.15344429977255600000	     -6.21284213645369650000	     -5.79011331418422160000	      2.65295602959016860000	     -0.00000000000007483289	     -0.00000000000075474698	     -2.13571110805773050000	      3.21137274246465720000	      0.29590788876110541000
      0.81032999999999999000	      2.11970766501947150000	      0.75233913408010611000	     -0.21524186551530083000	     -5.62490278386314650000	     -2.73353220884897090000	      1.68008356342272850000	     26.18622037772236400000	      0.61806038910171035000	      2.35940039809296120000	    -47.91482844374184700000	     -0.55540242656493788000	     -0.00000000000016072103	      0.00000000000000064797	      4.48146051778828710000	      2.13840648038200550000	     -6.21288797730904910000	     -5.66648384288217780000	      2.65744086433161450000	     -0.00000000000007510034	     -0.00000000000075664027	     -2.14891502827563040000	      3.25128422967557950000	      0.25923295878437003000
      0.81133000000000000000	      2.12084071960493990000	      0.75233095006821038000	     -0.21530951707836188000	     -5.62387474437689240000	     -2.75462856233205900000	      1.70207367626990510000	     26.29787981105105700000	      0.64777214705853892000	      2.46866315612238110000	    -47.63401460314265300000	     -0.47575936271272934000	     -0.00000000000016040302	      0.00000000000000077707	      4.32073709864787060000	      2.12377750277696190000	     -6.21227824887257810000	     -5.54344194246823820000	      2.66195334757340870000	     -0.00000000000007537816	     -0.00000000000075850323	     -2.16192746160690860000	      3.29023746608904320000	      0.22261909885754502000
      0.81233000000000000000	      2.12197423539242540000	      0.75231589214413919000	     -0.21537550280412168000	     -5.62285844893027240000	     -2.77516535747889840000	      1.72495143980507430000	     26.40781270401365100000	      0.67596039251473028000	      2.57368287701597790000	    -47.34975327863213600000	     -0.39724995450491268000	     -0.00000000000016006851	      0.00000000000000086366	      4.16036287530263230000	      2.10982992814776260000	     -6.21057590494973160000	     -5.42137932686780740000	      2.66651191164911690000	     -0.00000000000007567327	     -0.00000000000076031562	     -2.17462075012715020000	      3.32759361784007310000	      0.18610702234723756000
      0.81333000000000000000	      2.12310775117991120000	      0.75230083422006799000	     -0.21544148852988149000	     -5.62184215348365160000	     -2.79570215262573770000	      1.74782920334024320000	     26.51774559697624800000	      0.70414863797092164000	      2.67870259790957420000	    -47.06549195412161900000	     -0.31874054629709603000	     -0.00000000000015973401	      0.00000000000000095025	      3.99998865195739390000	      2.09588235351856380000	     -6.20887356102688500000	     -5.29931671126737670000	      2.67107047572482470000	     -0.00000000000007596839	     -0.00000000000076212802	     -2.18731403864739220000	      3.36494976959110260000	      0.14959494583693009000
      0.81433000000000000000	      2.12424207067194400000	      0.75227578958994357000	     -0.21550508603488180000	     -5.62089117091660300000	     -2.81541511886350370000	      1.77201101466120470000	     26.62530487760071200000	      0.73001548502695013000	      2.77697842566997280000	    -46.77648592256917200000	     -0.24208155327299377000	     -0.00000000000015942698	      0.00000000000000111258	      3.84024158614089920000	      2.08291165345111030000	     -6.20550489648632380000	     -5.17884775286474500000	      2.67589702804780980000	     -0.00000000000007623957	     -0.00000000000076401115	     -2.19943451641938070000	      3.39996451426725790000	      0.11322331691981578000
      0.81533000000000000000	      2.12537650497891260000	      0.75224931828752584000	     -0.21556834236548794000	     -5.61994951876092140000	     -2.83501039525711600000	      1.79637911852299430000	     26.73252507074829900000	      0.75555070374009770000	      2.87429084012562750000	    -46.48680207572502400000	     -0.16568690527513685000	     -0.00000000000015912388	      0.00000000000000128574	      3.68058411425708210000	      2.07008050689247770000	     -6.20189818614323230000	     -5.05860645977608490000	      2.68076186440612000000	     -0.00000000000007650734	     -0.00000000000076590438	     -2.21147316408447600000	      3.43464477221843060000	      0.07687175194458625800
      0.81633000000000000000	      2.12651137761449420000	      0.75221881732705698000	     -0.21563054902941778000	     -5.61888274367191890000	     -2.85430346810610880000	      1.82124582233461290000	     26.83860429605558200000	      0.78016647929373883000	      2.96861488174207410000	    -46.19520074179718700000	     -0.09014858511872675400	     -0.00000000000015884008	      0.00000000000000147060	      3.52101263429341630000	      2.05759239638704020000	     -6.19762761216626950000	     -4.93903327316158690000	      2.68597720856644790000	     -0.00000000000007677510	     -0.00000000000076778487	     -2.22342852861414380000	      3.46839636085695750000	      0.04064852777982487500
      0.81733000000000000000	      2.12764698079776430000	      0.75218160026983583000	     -0.21569100624888721000	     -5.61760743036071370000	     -2.87309286838073690000	      1.84694352606261350000	     26.94278190829570000000	      0.80324984958153689000	      3.05795830195984400000	    -45.90040359606320000000	     -0.01603747803139397200	     -0.00000000000015858845	      0.00000000000000167497	      3.36158447419666920000	      2.04567601263692690000	     -6.19225059879952330000	     -4.82057359733736050000	      2.69177673239680540000	     -0.00000000000007704284	     -0.00000000000076964409	     -2.23524508791809940000	      3.50060016730774180000	      0.00463920496584358830
      0.81833000000000000000	      2.12878258398103480000	      0.75214438321261479000	     -0.21575146346835664000	     -5.61633211704950950000	     -2.89188226865536490000	      1.87264122979061410000	     27.04695952053581500000	      0.82633321986933506000	      3.14730172217761340000	    -45.60560645032921200000	      0.05807362905593881100	     -0.00000000000015833682	      0.00000000000000187934	      3.20215631409992160000	      2.03375962888681410000	     -6.18687358543277630000	     -4.70211392151313400000	      2.69757625622716320000	     -0.00000000000007731059	     -0.00000000000077150332	     -2.24706164722205500000	      3.53280397375852660000	     -0.03137011784813769500
      0.81933000000000000000	      2.12991946593394890000	      0.75209776697177100000	     -0.21580922811338102000	     -5.61444987563129330000	     -2.91006832806803170000	      1.89936512966046630000	     27.14813332382087600000	      0.84740919720829833000	      3.22921530328158250000	    -45.30642277018223800000	      0.13005612552929405000	     -0.00000000000015807094	      0.00000000000000203018	      3.04255894188870930000	      2.02249119263815610000	     -6.18003193368160360000	     -4.58522853278895330000	      2.70488750763149000000	     -0.00000000000007756940	     -0.00000000000077336674	     -2.25899219215220800000	      3.56292995352172160000	     -0.06685111430933775300
      0.82033000000000000000	      2.13105634788686340000	      0.75205115073092721000	     -0.21586699275840540000	     -5.61256763421307700000	     -2.92825438748069860000	      1.92608902953031920000	     27.24930712710593300000	      0.86848517454726060000	      3.31112888438554750000	    -45.00723909003526300000	      0.20203862200264811000	     -0.00000000000015780506	      0.00000000000000218102	      2.88296156967749710000	      2.01122275638949870000	     -6.17319028193043010000	     -4.46834314406477250000	      2.71219875903581720000	     -0.00000000000007782822	     -0.00000000000077523016	     -2.27092273708236100000	      3.59305593328491570000	     -0.10233211077053751000
      0.82133000000000000000	      2.13219403917897890000	      0.75199785595166579000	     -0.21592281796305168000	     -5.61055921201282710000	     -2.94608788744381830000	      1.95338259549794980000	     27.34894198458192300000	      0.88826458121151364000	      3.38784559488291540000	    -44.70534346516393500000	      0.26945155843681451000	     -0.00000000000015754431	      0.00000000000000234593	      2.72362416950315290000	      2.00032032075658690000	     -6.16545388576424000000	     -4.35268708304227210000	      2.72084559007396850000	     -0.00000000000007806243	     -0.00000000000077714002	     -2.28259251345663430000	      3.62183243195768560000	     -0.13733879763137416000
